<?xml version="1.0" encoding="utf-8"?>
<!-- Generator: Adobe Illustrator 21.0.2, SVG Export Plug-In . SVG Version: 6.00 Build 0)  -->
<svg version="1.1" id="Layer_1" xmlns="http://www.w3.org/2000/svg" xmlns:xlink="http://www.w3.org/1999/xlink" x="0px" y="0px"
	 viewBox="0 0 56 57" style="enable-background:new 0 0 56 57;" xml:space="preserve">
<style type="text/css">
	.st0{fill:#9E9E9E;stroke:#363636;stroke-width:1.5;stroke-linecap:round;stroke-linejoin:round;stroke-miterlimit:10;}
	.st1{fill:#FBE9E7;stroke:#363636;stroke-linecap:round;stroke-linejoin:round;stroke-miterlimit:10;}
	.st2{fill:none;stroke:#363636;stroke-width:1.5;stroke-linecap:round;stroke-linejoin:round;stroke-miterlimit:10;}
	.st3{fill:#9E9E9E;stroke:#363636;stroke-linecap:round;stroke-linejoin:round;stroke-miterlimit:10;}
</style>
<rect x="17.9" y="26.5" class="st0" width="16.9" height="11.7"/>
<path class="st1" d="M34.2,29.9c0.5,0.1,1.1,0.3,1.5,0.5c2,1,3.4,3,3.4,5.4c0,3.3-2.7,6-6,6s-6-2.7-6-6s2.7-6,6-6
	C33.5,29.8,33.9,29.8,34.2,29.9"/>
<path class="st2" d="M27.5,17.5h-2.3c-1.9,0-3.5,1.6-3.5,3.5v5.5H31V21C31,19.1,29.4,17.5,27.5,17.5z"/>
<g>
	<circle class="st2" cx="26.4" cy="30.8" r="1.3"/>
	<rect x="25.9" y="31" class="st2" width="1" height="4"/>
</g>
<circle class="st2" cx="26.9" cy="29.3" r="21.1"/>
<path class="st2" d="M26.9,47c-9.8,0-17.7-8-17.7-17.7c0-9.8,8-17.7,17.7-17.7s17.7,8,17.7,17.7S36.6,47,26.9,47z"/>
<polygon class="st3" points="37.2,33.5 35.5,31.8 33.2,34.1 30.9,31.8 29.2,33.5 31.5,35.8 29.2,38.1 30.9,39.8 33.2,37.5 
	35.5,39.8 37.2,38.1 34.9,35.8 "/>
</svg>
