<?xml version="1.0" encoding="utf-8"?>
<!-- Generator: Adobe Illustrator 21.0.2, SVG Export Plug-In . SVG Version: 6.00 Build 0)  -->
<svg version="1.1" id="Layer_1" xmlns="http://www.w3.org/2000/svg" xmlns:xlink="http://www.w3.org/1999/xlink" x="0px" y="0px"
	 viewBox="0 0 56 57" style="enable-background:new 0 0 56 57;" xml:space="preserve">
<style type="text/css">
	.st0{fill:none;stroke:#3C3737;stroke-width:1.25;stroke-linecap:round;stroke-linejoin:round;stroke-miterlimit:10;}
	.st1{fill:#3C3737;}
</style>
<circle class="st0" cx="26.9" cy="29.3" r="21.1"/>
<path class="st1" d="M32.6,29c0.5-0.1,1.6-0.5,2.1-2l1.1-3.1l0.4,0.1c0.2,0.1,0.4,0,0.5-0.2l0.6-1.7c0.1-0.2,0-0.4-0.2-0.5L23.3,17
	c-0.2-0.1-0.4,0-0.5,0.2l-0.6,1.7c-0.1,0.2,0,0.4,0.2,0.5l0.4,0.1l-1.1,3.2c-0.5,1.5-0.2,2,0.5,2.8l2.8,3.3l-0.3,0.9
	c-1.1,0.2-3.8,0.8-4.2,0.9c-0.5,0.1-1.6,0.5-2.1,2l-0.9,2.7l-0.4-0.1c-0.2-0.1-0.4,0-0.5,0.2L16.1,37c-0.1,0.2,0,0.4,0.2,0.5
	L30,42.2c0.2,0.1,0.4,0,0.5-0.2l0.6-1.7c0.1-0.2,0-0.4-0.2-0.5l-0.4-0.1l0.9-2.7c0.5-1.5,0.2-2-0.5-2.8l-2.8-3.3l0.3-0.9
	C29.5,29.7,32.2,29.1,32.6,29z M26.8,31.4l3,3.6c0.2,0.3,0.4,0.4,0.4,0.6c0,0.2,0,0.5-0.2,0.9l-0.9,2.7l-10.3-3.5l0.9-2.7
	c0.3-0.8,0.8-1,1.2-1.1c0.3-0.1,2.8-0.6,4.5-1c0.2,0,0.4-0.2,0.5-0.4l0.6-1.6c0.1-0.2,0-0.5-0.1-0.6l-3-3.6l0,0
	c-0.2-0.3-0.4-0.4-0.4-0.6c0-0.2,0-0.5,0.2-0.9l1.1-3.2l10.3,3.5l-1.1,3.1c-0.3,0.8-0.8,1-1.2,1.1c-0.3,0.1-2.8,0.6-4.5,1
	c-0.2,0-0.4,0.2-0.5,0.4l-0.6,1.6C26.6,31,26.7,31.2,26.8,31.4z"/>
<path class="st0" d="M26.9,47c-9.8,0-17.7-8-17.7-17.7c0-9.8,8-17.7,17.7-17.7s17.7,8,17.7,17.7S36.6,47,26.9,47z"/>
</svg>
