<?xml version="1.0" encoding="utf-8"?>
<!-- Generator: Adobe Illustrator 21.0.2, SVG Export Plug-In . SVG Version: 6.00 Build 0)  -->
<svg version="1.1" id="Layer_1" xmlns="http://www.w3.org/2000/svg" xmlns:xlink="http://www.w3.org/1999/xlink" x="0px" y="0px"
	 viewBox="0 0 56 57" style="enable-background:new 0 0 56 57;" xml:space="preserve">
<style type="text/css">
	.st0{fill:none;stroke:#231F20;stroke-width:2;stroke-linecap:round;stroke-linejoin:round;stroke-miterlimit:10;}
	.st1{fill:none;stroke:#231F20;stroke-linecap:round;stroke-linejoin:round;stroke-miterlimit:10;}
</style>
<circle class="st0" cx="26.9" cy="29.3" r="21.1"/>
<path class="st1" d="M26.9,46.7c-9.6,0-17.4-7.8-17.4-17.4c0-9.6,7.8-17.4,17.4-17.4s17.4,7.8,17.4,17.4
	C44.3,38.9,36.5,46.7,26.9,46.7z"/>
<line class="st1" x1="26.9" y1="17.4" x2="26.9" y2="27.6"/>
<line class="st1" x1="26.9" y1="11.9" x2="26.9" y2="15.3"/>
<line class="st1" x1="9.5" y1="29.3" x2="12.9" y2="29.3"/>
<line class="st1" x1="26.9" y1="46.7" x2="26.9" y2="43.3"/>
<line class="st1" x1="44.3" y1="29.3" x2="40.9" y2="29.3"/>
<line class="st1" x1="15.2" y1="17.6" x2="16.4" y2="18.8"/>
<line class="st1" x1="15.2" y1="41" x2="16.4" y2="39.8"/>
<line class="st1" x1="38.6" y1="41" x2="37.4" y2="39.8"/>
<line class="st1" x1="38.6" y1="17.6" x2="37.4" y2="18.8"/>
<line class="st1" x1="34.6" y1="36.8" x2="28.1" y2="30.5"/>
<circle class="st1" cx="26.9" cy="29.3" r="1.7"/>
</svg>
